<?xml version="1.0" encoding="utf-8"?>
<!-- Generator: Adobe Illustrator 22.1.0, SVG Export Plug-In . SVG Version: 6.00 Build 0)  -->
<svg version="1.1" id="Layer_1" xmlns="http://www.w3.org/2000/svg" xmlns:xlink="http://www.w3.org/1999/xlink" x="0px" y="0px"
	 viewBox="0 0 162.3 69.9" style="enable-background:new 0 0 162.3 69.9;" xml:space="preserve">
<style type="text/css">
	.st0{fill:none;stroke-width:5;stroke-miterlimit:10;}
</style>
<g>
	<path class="st0" d="M155.2,10.8c-7.4-9.5-21.1-11.1-30.5-3.7l-5.6,4.4l-5.6-4.4c-9.3-7.4-23-5.7-30.4,3.7
		c-6.6,8.4-5.9,20.3,1.1,28.1c0.8,0.9,1.7,1.7,2.6,2.4l32.4,25.4l32.4-25.4c1-0.8,1.8-1.6,2.6-2.4C161.1,31.2,161.8,19.3,155.2,10.8
		z"/>
	<polygon class="st0" points="56.5,29.2 34.9,29.2 34.9,7.6 24.1,7.6 24.1,29.2 2.5,29.2 2.5,40 24.1,40 24.1,61.6 34.9,61.6
		34.9,40 56.5,40 	"/>
</g>
</svg>
