<?xml version="1.0" encoding="utf-8"?>
<!-- Generator: Adobe Illustrator 22.1.0, SVG Export Plug-In . SVG Version: 6.00 Build 0)  -->
<svg version="1.1" id="Layer_1" xmlns="http://www.w3.org/2000/svg" xmlns:xlink="http://www.w3.org/1999/xlink" x="0px" y="0px"
	 viewBox="0 0 93.2 71.9" style="enable-background:new 0 0 93.2 71.9;" xml:space="preserve">
<style type="text/css">
	.st0{fill:#DE751F;}
	.st1{fill:none;}
	.st2{fill:#FAAD63;}
	.st3{fill:#F6993F;}
	.st4{fill:#E3D660;}
	.st5{fill:#FFFFFF;}
</style>
<g id="Layer_1_1_">
	<title>Artboard</title>
	<desc>Created with Sketch.</desc>
	<g id="Page-1">
		<g id="Artboard">
			<g id="Group-3">
				<g id="Group-2">
				</g>
				<g id="pixel-and-tonic-logo" transform="translate(80.000000, 106.000000)">
					<path id="Shape_1_" class="st0 test" d="M-30.2-89.8c-20,8.9-41.4,17.7-41.4,18.1c0,0-1,3.3-3.3,7.4c-2.3,4.1-4.8,5.6-5.1,6.7
						c-0.2,1,27.3,37.3,68.6,19.2c38-16.1,20.6-55.7,20.6-55.7s1.8-5.8-5.1-11.7C4.1-105.9-12.4-97.7-30.2-89.8"/>
					<g id="Group" transform="translate(219.000000, 1.000000)">
						<g id="Clipped">
							<g id="a">
							</g>
							<path id="Shape_2_" class="st1" d="M-214.9-106.9c4.2,3.8,5,7.7,5,9.8C-209.9-99.3-210.6-103.1-214.9-106.9 M-214.9-106.9
								L-214.9-106.9L-214.9-106.9L-214.9-106.9"/>
						</g>
					</g>
					<g id="Group_1_" transform="translate(217.000000, 0.000000)">
						<g id="Clipped_1_">
							<g id="c">
							</g>
							<path id="Shape_3_" class="st1" d="M-213.8-105.8L-213.8-105.8l0.5-0.2C-213.3-106-213.5-105.9-213.8-105.8"/>
						</g>
					</g>
					<g id="Group_2_" transform="translate(22.000000, 88.000000)">
						<g id="Clipped_2_">
							<g id="e">
							</g>
							<path id="Shape_4_" class="st1" d="M-93.6-160c0,0,0.1-0.1,0.2-0.2c0.1-0.1,0.2-0.1,0.2-0.2C-93.4-160.2-93.5-160.1-93.6-160
								"/>
						</g>
					</g>
					<g id="Group_4_" transform="translate(160.000000, 180.000000)">
						<g id="Clipped_4_">
							<g id="i">
							</g>
							<path id="Shape_6_" class="st1" d="M-178.5-216.2c1.1-0.3,2.1-0.6,3.3-1C-176.4-216.8-177.4-216.5-178.5-216.2"/>
						</g>
					</g>
					<g id="Group_5_" transform="translate(118.000000, 183.000000)">
						<g id="Clipped_5_">
							<g id="k">
							</g>
							<path id="Shape_7_" class="st1" d="M-138.7-218.5c0.6-0.2,1.3-0.4,2-0.5C-137.3-218.9-138-218.6-138.7-218.5 M-152.5-216.6
								c4.4,0,9.1-0.5,13.9-1.8C-143.5-217.2-148.2-216.6-152.5-216.6"/>
						</g>
					</g>
					<path id="Shape_8_" class="st2" d="M-28.9-42.5c6.4,1,34.4,4.3,39.8-26.7c0,0,1-13.7-3.8-24.9c0,0,0-6.3-4.1-11.9
						c-3.1,1.4-16.8,8-31.7,14.6c-15.2,6.7-31.5,13.6-39.1,17.2C-66.2-71.9-48.3-45.4-28.9-42.5"/>
					<path id="Shape_9_" class="st3" d="M-54.9-69.5c0,0,16,27.3,41.9,23.5C13-49.9,9.7-87.4,1.5-98.4c0,0-2.5-3.1-12.4,4.3
						s-27.9,16.1-33,17.3C-49-75.4-56.7-72.1-54.9-69.5"/>
					<g id="Group_6_" transform="translate(65.000000, 19.000000)">
						<g id="Clipped_6_">
							<g id="m">
							</g>
							<path id="Shape_10_" class="st1" d="M-75.8-112.9c-10,7.5-28.1,16.2-33.2,17.4c-4.7,1.2-10.2,3.7-10.9,5.7
								c-0.2,0.4-0.1,0.8,0.2,1.1c0.2,0.2,14.2,23.8,36.8,23.8c1.6,0,3.3-0.1,4.9-0.4c8.1-1.2,14.2-6,17.4-13.9
								c5.5-13.3,1.8-31.5-3.1-38.1c0,0-0.5-0.5-1.8-0.5C-67.2-117.8-70.3-116.9-75.8-112.9"/>
						</g>
					</g>
					<path id="Shape_11_" class="st4" d="M-54.1-72.5c-0.9,0.8-1.3,1.8-0.8,2.6c0,0,14,23.9,37.1,23.9c1.6,0,3.3-0.1,5-0.4
						c5.6-0.8,9.8-3.2,13-6.6c-3.1,3.3-7.4,5.7-12.9,6.5c-1.7,0.2-3.4,0.4-5,0.4c-23,0-37.1-23.9-37.1-23.9
						C-55.3-70.8-55-71.7-54.1-72.5"/>
					<path id="Shape_12_" class="st5" d="M-0.5-99c-1.8,0-5,0.9-10.4,5c-9.9,7.4-27.9,16.1-33.1,17.3c-3.4,0.9-8.1,2.7-10.1,4.6
						c-0.9,0.8-1.3,1.8-0.7,2.5c-0.1,0,14,23.9,36.9,23.9c1.6,0,3.3-0.2,5-0.4c5.5-0.8,9.7-3.2,12.9-6.5
						c11.4-12.2,7.9-37.1,1.5-45.8C1.5-98.4,1.1-99-0.5-99 M-17.9-45.9c-22.6,0-36.6-23.5-36.8-23.8s-0.3-0.7-0.1-1.1
						c0.8-2,6.2-4.5,10.9-5.7c5-1.2,23.1-9.9,33.2-17.4c5.4-4.1,8.6-4.9,10.3-4.9c1.3,0,1.8,0.5,1.8,0.5c4.9,6.7,8.6,24.8,3.1,38.1
						c-3.2,7.9-9.2,12.7-17.3,14C-14.6-46-16.3-45.9-17.9-45.9"/>
					<path id="Shape_13_" class="st5" d="M-42.5-73.2l2.5,7.3C-39.9-65.9-40.7-70.9-42.5-73.2 M-26.7-70.6l2.5,7.3
						C-24.2-63.3-25-68.4-26.7-70.6 M-5.1-86.7l3.6,10.3C-1.5-76.5-2.6-83.5-5.1-86.7 M-12.5-77.9l3.6,10.3
						C-8.9-67.6-10-74.7-12.5-77.9 M-3.8-73.9l3.6,10.3C-0.2-63.6-1.3-70.7-3.8-73.9"/>
				</g>
			</g>
		</g>
	</g>
</g>
</svg>
