<?xml version="1.0" encoding="utf-8"?>
<!-- Generator: Adobe Illustrator 22.1.0, SVG Export Plug-In . SVG Version: 6.00 Build 0)  -->
<svg version="1.1" id="Layer_1" xmlns="http://www.w3.org/2000/svg" xmlns:xlink="http://www.w3.org/1999/xlink" x="0px" y="0px"
	 viewBox="0 0 67.2 96" style="enable-background:new 0 0 67.2 96;" xml:space="preserve">
<style type="text/css">
	.st0{fill:none;stroke-width:3;stroke-linecap:round;stroke-linejoin:round;stroke-miterlimit:10;}
	.st1{fill:none;stroke-width:2;stroke-linecap:round;stroke-linejoin:round;stroke-miterlimit:10;}
	.st2{fill:none;stroke-width:3;stroke-linecap:square;stroke-linejoin:round;stroke-miterlimit:10;}
</style>
<g>
	<path class="st0" d="M62.9,30.7l-5.5,60.5c-0.2,1.9-1.8,3.4-3.7,3.4H13.4c-1.9,0-3.5-1.5-3.7-3.4L4.3,30.7L1.5,1.5h64.2L62.9,30.7z
		"/>
	<path class="st1" d="M4.3,30.7l0.1,1l0.2,0.2c3.8,6,6.4,47.1,7,49.4c0.6,2.3,3.8,4,22.1,4.9c18.3-1,21.6-2.6,22.1-4.9
		s3.2-43.4,7-49.4l0.2-0.3l0.1-0.9l2.8-29.2H1.5L4.3,30.7z"/>
	<g>
		<path class="st2" d="M49.8,83.9l2.2-47.8c0-2.3-4.1-4.2-9.2-4.2s-9.2,1.9-9.2,4.2V85"/>
		<path class="st0" d="M52.1,36.1c0-2.3,4.1-4.2,9.2-4.2c0.5,0,0.9,0,1.4,0"/>
	</g>
	<g>
		<path class="st2" d="M17.4,83.9l-2.2-47.8c0-2.3,4.1-4.2,9.2-4.2s9.2,1.9,9.2,4.2V85"/>
		<path class="st0" d="M15.1,36.1c0-2.3-4.1-4.2-9.2-4.2c-0.5,0-0.9,0-1.4,0"/>
	</g>
	<line class="st2" x1="49.8" y1="83.9" x2="52.1" y2="36.1"/>
</g>
</svg>
