<?xml version="1.0" encoding="utf-8"?>
<!-- Generator: Adobe Illustrator 22.1.0, SVG Export Plug-In . SVG Version: 6.00 Build 0)  -->
<svg version="1.1" id="Layer_1" xmlns="http://www.w3.org/2000/svg" xmlns:xlink="http://www.w3.org/1999/xlink" x="0px" y="0px"
	 viewBox="0 0 57.1 78.6" style="enable-background:new 0 0 57.1 78.6;" xml:space="preserve">
<style type="text/css">
	.st0{fill:none;stroke-width:3;stroke-linecap:round;stroke-linejoin:round;stroke-miterlimit:10;}
	.st1{fill:none;stroke-width:2;stroke-linecap:round;stroke-linejoin:round;stroke-miterlimit:10;}
</style>
<g>
	<path class="st0" d="M33,72.4h-4.5H24c0,0-9.5,3.3-12.2,4.6h16.7h16.7C42.6,75.8,33,72.4,33,72.4z"/>
	<path class="st0" d="M45.9,1.5H28.5H11.1c0,0-9.6,21-9.6,30.9s9.3,17.5,21.7,19.8h5.4h5.4c12.4-2.3,21.7-9.8,21.7-19.8
		S45.9,1.5,45.9,1.5z"/>
	<polygon class="st0" points="31.3,55.8 25.8,55.8 23.2,52.2 33.9,52.2 	"/>
	<rect x="25.8" y="55.8" class="st0" width="5.4" height="13.5"/>
	<polygon class="st0" points="31.2,69.3 25.8,69.3 22.3,72.4 34.7,72.4 	"/>
	<path class="st1" d="M28.5,48.6c17.7,0,21-5,26.2-11.3c0.5-1.5,0.8-3.2,0.8-4.9c0-9.9-9.6-30.9-9.6-30.9H28.5H11.1
		c0,0-9.6,21-9.6,30.9c0,1.7,0.3,3.3,0.8,4.9C7.5,43.6,10.9,48.6,28.5,48.6z"/>
</g>
</svg>
