<?xml version="1.0" encoding="utf-8"?>
<!-- Generator: Adobe Illustrator 22.1.0, SVG Export Plug-In . SVG Version: 6.00 Build 0)  -->
<svg version="1.1" id="Layer_1" xmlns="http://www.w3.org/2000/svg" xmlns:xlink="http://www.w3.org/1999/xlink" x="0px" y="0px"
	 viewBox="0 0 53.7 94.8" style="enable-background:new 0 0 53.7 94.8;" xml:space="preserve">
<style type="text/css">
	.st0{fill:none;stroke-width:3;stroke-linecap:round;stroke-linejoin:round;stroke-miterlimit:10;}
	.st1{fill:none;stroke-width:1.5;stroke-linecap:round;stroke-linejoin:round;stroke-miterlimit:10;}
</style>
<g>
	<path class="st0" d="M26.9,1.5H1.5c0,0,3.4,74,4,77.6c0.7,3.7,1.5,4.1,2.7,4.8h18.6h18.6c1.2-0.7,2-1.1,2.7-4.8
		c0.6-3.6,4-77.6,4-77.6H26.9z"/>
	<path class="st0" d="M43.4,93.3H10.3C9,93.3,8,92.2,8,91v-7.1h37.8V91C45.7,92.2,44.7,93.3,43.4,93.3z"/>
	<g>
		<path class="st1" d="M7.5,83.9c0.3-1.6,0.5-3.7,0.5-6.1c0-15.3-3.5-32-3.5-32s-0.1,0.5-0.3,1.4"/>
		<path class="st1" d="M14.9,83.9c0.3-1.6,0.5-3.7,0.5-6.1c0-15.3-3.5-32-3.5-32s-3.5,16.7-3.5,32c0,2.4,0.2,4.4,0.5,6.1"/>
		<path class="st1" d="M22.4,83.9c0.3-1.6,0.5-3.7,0.5-6.1c0-15.3-3.5-32-3.5-32s-3.5,16.7-3.5,32c0,2.4,0.2,4.4,0.5,6.1"/>
		<path class="st1" d="M29.8,83.9c0.3-1.6,0.5-3.7,0.5-6.1c0-15.3-3.5-32-3.5-32s-3.5,16.7-3.5,32c0,2.4,0.2,4.4,0.5,6.1"/>
		<path class="st1" d="M37.3,83.9c0.3-1.6,0.5-3.7,0.5-6.1c0-15.3-3.5-32-3.5-32s-3.5,16.7-3.5,32c0,2.4,0.2,4.4,0.5,6.1"/>
		<path class="st1" d="M44.8,83.9c0.3-1.6,0.5-3.7,0.5-6.1c0-15.3-3.5-32-3.5-32s-3.5,16.7-3.5,32c0,2.4,0.2,4.4,0.5,6.1"/>
		<path class="st1" d="M49.8,48.7c-0.3-1.8-0.5-2.9-0.5-2.9s-3.5,16.7-3.5,32c0,2.4,0.2,4.4,0.5,6.1"/>
	</g>
</g>
</svg>
