<?xml version="1.0" encoding="utf-8"?>
<!-- Generator: Adobe Illustrator 22.1.0, SVG Export Plug-In . SVG Version: 6.00 Build 0)  -->
<svg version="1.1" id="Layer_1" xmlns="http://www.w3.org/2000/svg" xmlns:xlink="http://www.w3.org/1999/xlink" x="0px" y="0px"
	 viewBox="0 0 29.6 67" style="enable-background:new 0 0 29.6 67;" xml:space="preserve">
<style type="text/css">
	.st0{fill:none;stroke-width:3;stroke-linecap:round;stroke-linejoin:round;stroke-miterlimit:10;}
	.st1{fill:none;stroke-width:2;stroke-linecap:round;stroke-linejoin:round;stroke-miterlimit:10;}
</style>
<g>
	<path class="st0" d="M14.8,1.5H2.4C2.4,4.1,6,6.7,6,10.3s0.9,29,0.9,29h7.9h7.9c0,0,0.9-25.3,0.9-29s3.6-6.2,3.6-8.8H14.8z"/>
	<path class="st0" d="M14.8,39.3H6.9c0,0,4.7,4.2,4.9,7h3h3c0.2-2.7,4.9-7,4.9-7H14.8z"/>
	<path class="st0" d="M17.8,46.2h-3h-3c0,0,1.3,8.3,0,11h3h3C16.6,54.6,17.8,46.2,17.8,46.2z"/>
	<path class="st0" d="M17.8,57.2h-3h-3c0,0-1.9,4-4.4,5h7.4h7.4C19.8,61.2,17.8,57.2,17.8,57.2z"/>
	<path class="st0" d="M28,65.3c-2.1-0.3-5.8-3-5.8-3h-7.4H7.4c0,0-3.7,2.8-5.8,3C-0.5,65.5,30.1,65.5,28,65.3z"/>
	<path class="st1" d="M27.2,1.5H14.8H2.4C2.4,4.1,6,6.7,6,10.3c0,0.4,0,1,0,1.7l0.4,0c0,0,0.7,21.9,2.6,23.9
		c1.3,1.7,10.4,1.7,11.7,0c1.8-1.9,2.6-23.9,2.6-23.9l0.4-0.2c0-0.7,0-1.3,0-1.6C23.6,6.7,27.2,4.1,27.2,1.5z"/>
</g>
</svg>
