<?xml version="1.0" encoding="utf-8"?>
<!-- Generator: Adobe Illustrator 22.1.0, SVG Export Plug-In . SVG Version: 6.00 Build 0)  -->
<svg version="1.1" id="Layer_1" xmlns="http://www.w3.org/2000/svg" xmlns:xlink="http://www.w3.org/1999/xlink" x="0px" y="0px"
	 viewBox="0 0 61.1 61.1" style="enable-background:new 0 0 61.1 61.1;" xml:space="preserve">
<style type="text/css">
	.st0{fill:none;stroke-width:3;stroke-linecap:round;stroke-linejoin:round;stroke-miterlimit:10;}
	.st1{fill:none;stroke-width:2;stroke-linecap:round;stroke-linejoin:round;stroke-miterlimit:10;}
</style>
<g>
	<path class="st0" d="M43.6,40c0.8-3.8,12.1-28.3,15.8-36.1c0.5-1.1-0.3-2.4-1.5-2.4H30.6H3.2C2,1.5,1.1,2.8,1.7,3.9
		C5.3,11.8,16.7,36.2,17.5,40c0.9,4.6,1.4,3.9,0,6.2c-1.4,2.3-6.7,11.5-0.2,13.4h13.3h13.3c6.4-1.9,1.1-11.1-0.2-13.4
		C42.3,43.9,42.7,44.6,43.6,40z"/>
	<path class="st1" d="M57.9,1.5H30.6H3.2C2,1.5,1.1,2.8,1.7,3.9C3.2,7.3,6.2,13.6,9.1,20h0c8.2,15,12.1,19.6,21.5,19.6
		C40,39.6,43.9,35,52,20l0,0c2.9-6.4,5.9-12.7,7.4-16.1C60,2.8,59.2,1.5,57.9,1.5z"/>
</g>
</svg>
