<?xml version="1.0" encoding="utf-8"?>
<!-- Generator: Adobe Illustrator 22.1.0, SVG Export Plug-In . SVG Version: 6.00 Build 0)  -->
<svg version="1.1" id="Layer_1" xmlns="http://www.w3.org/2000/svg" xmlns:xlink="http://www.w3.org/1999/xlink" x="0px" y="0px"
	 viewBox="0 0 35.1 125.1" style="enable-background:new 0 0 35.1 125.1;" xml:space="preserve">
<style type="text/css">
	.st0{fill:none;stroke-width:3;stroke-linecap:round;stroke-linejoin:round;stroke-miterlimit:10;}
	.st1{fill:none;stroke-width:2;stroke-linecap:round;stroke-linejoin:round;stroke-miterlimit:10;}
</style>
<g>
	<path class="st0" d="M23.8,119.5h-6.2h-6.2c0,0-7.2,2.2-9.8,4.1h16h16C30.9,121.7,23.8,119.5,23.8,119.5z"/>
	<path class="st0" d="M31.2,1.5H17.5H3.9c-1.8,13.4-1.8,35,0,43.2s8.1,18.9,9.2,29.9s4.5,31.5,0.2,40.7h4.2h4.2
		c-4.2-9.2-0.8-29.6,0.2-40.7c1.1-11.1,7.4-21.8,9.2-29.9S33,14.9,31.2,1.5z"/>
	<path class="st1" d="M31.2,1.5H17.5H3.9c-1.8,13.4-1.8,35,0,43.2c1.3,5.9,5,13.2,7.3,21c1.3,1.9,3.7,3.1,6.3,3.1
		c2.7,0,5-1.2,6.3-3.1c2.3-7.8,6-15.1,7.3-21C33,36.5,33,14.9,31.2,1.5z"/>
	<path class="st0" d="M11.9,119.5c-0.4-0.4-0.6-0.8-0.6-1.2c0-1.6,2.8-2.9,6.2-2.9s6.2,1.3,6.2,2.9c0,0.4-0.2,0.9-0.5,1.2H11.9z"/>
</g>
</svg>
