<?xml version="1.0" encoding="utf-8"?>
<!-- Generator: Adobe Illustrator 22.1.0, SVG Export Plug-In . SVG Version: 6.00 Build 0)  -->
<svg version="1.1" id="Layer_1" xmlns="http://www.w3.org/2000/svg" xmlns:xlink="http://www.w3.org/1999/xlink" x="0px" y="0px"
	 viewBox="0 0 71.2 116.2" style="enable-background:new 0 0 71.2 116.2;" xml:space="preserve">
<style type="text/css">
	.st0{fill:none;stroke-width:3;stroke-linecap:round;stroke-linejoin:round;stroke-miterlimit:10;}
	.st1{fill:none;stroke-width:2;stroke-linecap:round;stroke-linejoin:round;stroke-miterlimit:10;}
</style>
<g>
	<path class="st0" d="M48,105.7H35.6H23.2c0,0-6.1,5.6-16.8,8.9h29.1h29.1C54.1,111.4,48,105.7,48,105.7z"/>
	<path class="st0" d="M67.4,1.5H35.6H3.8c-9.6,56.9,14,72.4,22.7,86.6h9.1h9.1C53.4,73.9,77.1,58.4,67.4,1.5z"/>
	<path class="st0" d="M44.7,88.1h-9.1h-9.1c0,0,2.1,13.8-3.3,17.6h12.4H48C42.6,101.9,44.7,88.1,44.7,88.1z"/>
	<path class="st1" d="M67.4,1.5H35.6H3.8C1.1,17.3,1,29.9,2.4,40.2c5,15,13.1,38.7,33.2,38.7c20,0,28.2-23.7,33.2-38.7
		C70.2,29.9,70.1,17.3,67.4,1.5z"/>
</g>
</svg>
