<?xml version="1.0" encoding="utf-8"?>
<!-- Generator: Adobe Illustrator 22.1.0, SVG Export Plug-In . SVG Version: 6.00 Build 0)  -->
<svg version="1.1" id="Layer_1" xmlns="http://www.w3.org/2000/svg" xmlns:xlink="http://www.w3.org/1999/xlink" x="0px" y="0px"
	 viewBox="0 0 43.8 78.6" style="enable-background:new 0 0 43.8 78.6;" xml:space="preserve">
<style type="text/css">
	.st0{fill:none;stroke-width:3;stroke-linecap:round;stroke-linejoin:round;stroke-miterlimit:10;}
	.st1{fill:none;stroke-width:2;stroke-linecap:round;stroke-linejoin:round;stroke-miterlimit:10;}
</style>
<g>
	<path class="st0" d="M38.9,69.5c-11.3,0-22.7,0-34,0c-1.6-22.4-3.7-45.7-3.3-68c13.6,0,27.1,0,40.7,0
		C42.6,23.9,40.5,47.2,38.9,69.5z"/>
	<rect x="4.9" y="69.5" class="st0" width="34.1" height="7.6"/>
	<path class="st1" d="M42.3,1.5c-13.6,0-27.1,0-40.7,0c-0.3,18,1,36.5,2.4,54.7c0,0.4,0.9,8.7,2.5,9.7c1.7,1.1,15.5,1.2,15.5,1.2
		s13.8-0.1,15.5-1.2c1.6-1.1,2.5-9.4,2.5-9.7C41.2,38,42.5,19.5,42.3,1.5z"/>
</g>
</svg>
