<?xml version="1.0" encoding="utf-8"?>
<!-- Generator: Adobe Illustrator 22.1.0, SVG Export Plug-In . SVG Version: 6.00 Build 0)  -->
<svg version="1.1" id="Layer_1" xmlns="http://www.w3.org/2000/svg" xmlns:xlink="http://www.w3.org/1999/xlink" x="0px" y="0px"
	 viewBox="0 0 45.8 90.2" style="enable-background:new 0 0 45.8 90.2;" xml:space="preserve">
<style type="text/css">
	.st0{fill:none;stroke-width:3;stroke-linecap:round;stroke-linejoin:round;stroke-miterlimit:10;}
	.st1{fill:none;stroke-width:2;stroke-linecap:round;stroke-linejoin:round;stroke-miterlimit:10;}
</style>
<g>
	<path class="st0" d="M33,68.6c-6.7,0-13.4,0-20.1,0c-2.7,0-5.1-2.1-5.5-4.8C4.7,42.7,2.5,22.6,1.5,1.5c14.3,0,28.5,0,42.8,0
		c-1,21.1-3.2,41.2-5.9,62.3C38.1,66.6,35.7,68.6,33,68.6z"/>
	<path class="st0" d="M29.8,74.3c-4.6,0-9.3,0-13.9,0c-1.6-1.9-3.2-3.8-5.1-5.6c8.1,0,16.1,0,24.2,0C33,70.5,31.4,72.4,29.8,74.3z"
		/>
	<rect x="16" y="74.3" class="st0" width="13.8" height="6.5"/>
	<path class="st0" d="M35,85.4c-1.7-2-5.2-4.6-5.2-4.6h-6.9H16c0,0-3.5,2.6-5.2,4.6s-4.2,2.3-5.3,3.3h17.3h0h17.3
		C39.2,87.7,36.6,87.4,35,85.4z"/>
	<path class="st1" d="M5.3,46.5l0.2,0.2c1.4,4.9,2.3,16.3,5.8,17.7c2.7,1.1,11.5,0.9,11.5,0.9s8.8,0.2,11.5-0.9
		c3.6-1.4,4.4-12.8,5.8-17.7l0.2-0.1c1.7-15.1,3.1-29.9,3.8-45.2c-14.3,0-28.5,0-42.8,0C2.2,16.8,3.6,31.5,5.3,46.5z"/>
</g>
</svg>
