<?xml version="1.0" encoding="utf-8"?>
<!-- Generator: Adobe Illustrator 22.1.0, SVG Export Plug-In . SVG Version: 6.00 Build 0)  -->
<svg version="1.1" id="Layer_1" xmlns="http://www.w3.org/2000/svg" xmlns:xlink="http://www.w3.org/1999/xlink" x="0px" y="0px"
	 viewBox="0 0 48.3 125.1" style="enable-background:new 0 0 48.3 125.1;" xml:space="preserve">
<style type="text/css">
	.st0{fill:none;stroke-width:3;stroke-linecap:round;stroke-linejoin:round;stroke-miterlimit:10;}
	.st1{fill:none;stroke-width:2;stroke-linecap:round;stroke-linejoin:round;stroke-miterlimit:10;}
</style>
<g>
	<path class="st0" d="M46.7,72c1-10-6.2-46.1-6.2-53.7s6.2-16.8,6.2-16.8H24.1H1.6c0,0,6.2,9.1,6.2,16.8S0.6,62,1.6,72
		c0.9,8.7,2,24.1,18.6,25.2c-2.3,1.2-3.8,2.9-3.8,2.9s2.1,2.3,5,3.4c-1.9,1-3.2,2.9-3.2,5.2c0,2,1,3.8,2.6,4.9l-1.8,5.6
		c0,0-8.8,0.9-14.2,4.5h19.3h19.3c-5.4-3.6-14.2-4.5-14.2-4.5l-1.8-5.6c1.5-1.1,2.6-2.9,2.6-4.9c0-2.3-1.3-4.2-3.2-5.2
		c2.9-1.1,5-3.4,5-3.4s-1.5-1.7-3.8-2.9C44.7,96.1,45.8,80.7,46.7,72z"/>
	<path class="st0" d="M30.1,108.7c0-2.3-1.3-4.2-3.2-5.2h-5.5c-1.9,1-3.2,2.9-3.2,5.2c0,2,1,3.8,2.6,4.9h6.8
		C29.1,112.5,30.1,110.7,30.1,108.7z"/>
	<polygon class="st0" points="29.3,119 27.5,113.5 20.8,113.5 19,119.1 29,119.1 	"/>
	<path class="st1" d="M40.5,18.3c0-7.7,6.2-16.8,6.2-16.8H24.1H1.6c0,0,6.2,9.1,6.2,16.8C7.8,26,0.6,62,1.6,72c0.1,1,0.2,2,0.3,3.1
		l0,0c4,9.7,5.9,19.4,22.1,19.4c16.2,0,18.1-9.7,22.1-19.4l0.4-1.4c0.1-0.6,0.1-1.1,0.2-1.7C47.7,62,40.5,26,40.5,18.3z"/>
</g>
</svg>
