<?xml version="1.0" encoding="utf-8"?>
<!-- Generator: Adobe Illustrator 22.1.0, SVG Export Plug-In . SVG Version: 6.00 Build 0)  -->
<svg version="1.1" id="Layer_1" xmlns="http://www.w3.org/2000/svg" xmlns:xlink="http://www.w3.org/1999/xlink" x="0px" y="0px"
	 viewBox="0 0 49.5 90.2" style="enable-background:new 0 0 49.5 90.2;" xml:space="preserve">
<style type="text/css">
	.st0{fill:none;stroke-width:3;stroke-linecap:round;stroke-linejoin:round;stroke-miterlimit:10;}
	.st1{fill:none;stroke-width:2;stroke-linecap:round;stroke-linejoin:round;stroke-miterlimit:10;}
</style>
<g>
	<path class="st0" d="M46.5,46.6c1.2-11.9,2.2-10.1,0.8-45.1H24.8H2.2C0.8,36.5,1.8,34.7,3,46.6c0.3,3,0,3-0.1,8.6
		c-0.1,3.8,3,6.7,2.8,11.6c-0.3,6.4-0.9,13,0.1,18.1c0.3,1.7,1.9,3.9,3.7,3.9h15.3h15.3c1.8,0,3.4-2.2,3.7-3.9
		c0.9-5.1,0.4-11.7,0.1-18.1c-0.2-4.9,2.9-7.8,2.8-11.6C46.5,49.6,46.2,49.6,46.5,46.6z"/>
	<path class="st1" d="M43.8,66.6c-0.2-4.8,2.9-7.7,2.8-11.5c-0.1-5.5-0.4-5.5-0.1-8.6c1.2-11.9,2.2-10.1,0.8-45.1H24.8H2.2
		C0.8,36.5,1.8,34.7,3,46.6c0.3,3,0,3-0.1,8.6c-0.1,3.8,3,6.7,2.8,11.6c0,0,0,0,0,0l0.1,0c0,0,2.7,12.8,4.3,14.6
		c1.6,1.8,14.7,1.5,14.7,1.5s13.1,0.3,14.7-1.5s4.3-14.6,4.3-14.6L43.8,66.6z"/>
</g>
</svg>
