<?xml version="1.0" encoding="utf-8"?>
<!-- Generator: Adobe Illustrator 22.1.0, SVG Export Plug-In . SVG Version: 6.00 Build 0)  -->
<svg version="1.1" id="Layer_1" xmlns="http://www.w3.org/2000/svg" xmlns:xlink="http://www.w3.org/1999/xlink" x="0px" y="0px"
	 viewBox="0 0 47.9 88.8" style="enable-background:new 0 0 47.9 88.8;" xml:space="preserve">
<style type="text/css">
	.st0{fill:none;stroke-width:3;stroke-linecap:round;stroke-linejoin:round;stroke-miterlimit:10;}
	.st1{fill:none;stroke-width:2;stroke-linecap:round;stroke-linejoin:round;stroke-miterlimit:10;}
</style>
<g>
	<path class="st0" d="M16.4,59c0.9,4.1,14.1,4.1,15,0c13.8-11.5,18-35.3,12.8-57.5H23.9H3.7C-1.6,23.7,2.7,47.5,16.4,59z"/>
	<path class="st0" d="M23.9,62l-4.9,0.1c0,2,1,3.4,4.9,3.3c3.9,0.1,4.9-1.3,4.9-3.3L23.9,62z"/>
	<rect x="21.8" y="65.4" class="st0" width="4.3" height="12.4"/>
	<path class="st0" d="M26.1,77.8h-2.1h-2.1c0,0-1.8,2.5-2.8,4h4.9h0h4.9C27.8,80.3,26.1,77.8,26.1,77.8z"/>
	<path class="st0" d="M28.8,81.7h-4.9h-4.9c0,0-9.3,3.3-12.6,5.6h17.5h17.5C38.1,85,28.8,81.7,28.8,81.7z"/>
	<path class="st1" d="M44.8,34.8c2.3-10.3,2.1-22-0.6-33.3H23.9H3.7C1,12.8,0.8,24.5,3.1,34.8c1.2,4.4,10.1,20.2,14.3,21.5
		c4.2,1.3,6.6,1.2,6.6,1.2s2.4,0.1,6.6-1.2C34.7,55.1,43.6,39.3,44.8,34.8z"/>
</g>
</svg>
