<?xml version="1.0" encoding="utf-8"?>
<!-- Generator: Adobe Illustrator 22.1.0, SVG Export Plug-In . SVG Version: 6.00 Build 0)  -->
<svg version="1.1" id="Layer_1" xmlns="http://www.w3.org/2000/svg" xmlns:xlink="http://www.w3.org/1999/xlink" x="0px" y="0px"
	 viewBox="0 0 58.7 78.6" style="enable-background:new 0 0 58.7 78.6;" xml:space="preserve">
<style type="text/css">
	.st0{fill:none;stroke-width:3;stroke-linecap:round;stroke-linejoin:round;stroke-miterlimit:10;}
	.st1{fill:none;stroke-width:2;stroke-linecap:round;stroke-linejoin:round;stroke-miterlimit:10;}
</style>
<g>
	<path class="st0" d="M31.7,56.6H20.6H9.5c2.4,3,1.9,8.2,0.9,11.3h10.2h10.2C29.8,64.8,29.3,59.6,31.7,56.6z"/>
	<path class="st0" d="M30.8,67.9H20.6H10.4c-0.9,3.1-8.1,6.8-8.1,9.2h18.4H39C39,74.7,31.7,71,30.8,67.9z"/>
	<path class="st0" d="M36.9,11.5c2-1.3,7-2.2,9.2-2.2s4.6-0.6,7.4,2.2c2.8,2.8,4.9,20.7,3,25.3S40,50.3,36,51.6
		c-2.3,0.7-2.2-9.2,0.7-9.9s1.3,1.9,3.7,1.9c2.4,0,11.5-7,12.6-9.2c1-2.2,0.7-19-2.8-20.7c-3.1-1.5-10.5-0.6-10.7,4.3
		c-0.1,1.5,0.3,2.9-1.4,3C34.5,21.1,33.4,13.8,36.9,11.5z"/>
	<path class="st0" d="M36,51.6c-2.3,0.7-2.2-9.2,0.7-9.9c2.6-0.6,1.7,1.3,3,1.8V16.9c-0.1,0.3-0.2,0.7-0.2,1.1
		c-0.1,1.5,0.3,2.9-1.4,3c-3.6,0.1-4.7-7.2-1.2-9.5c0.7-0.4,1.7-0.8,2.8-1.2l0,0V1.5H20.6H1.5V47c0,2.1,1,4.1,2.6,5.4l5.4,4.2h11.1
		h11.1l5.4-4.2c0.7-0.6,1.3-1.3,1.8-2.1l0,0C37.7,50.9,36.7,51.4,36,51.6z"/>
	<path class="st1" d="M38.8,50.3L38.8,50.3c5.7-3,16-9.7,17.6-13.5c1.9-4.6-0.1-22.5-3-25.3s-5.2-2.2-7.4-2.2
		c-1.5,0-4.1,0.4-6.4,1.1l0,0V1.5H20.6H1.5V47c0,0.7,0.1,1.4,0.3,2.1c4.4,4.3,18.8,3.6,18.8,3.6s8.6,0.4,14.6-1.5l2.9,0.1
		C38.3,51.1,38.6,50.8,38.8,50.3z M50.2,13.7c3.6,1.8,3.8,18.5,2.8,20.7c-1,2.2-10.2,9.2-12.6,9.2c-0.3,0-0.5,0-0.7-0.1V16.9
		C40.8,13,47.4,12.3,50.2,13.7z M39.1,42.9c-0.2-0.3-0.3-0.7-0.5-0.9C38.8,42.2,38.9,42.6,39.1,42.9z"/>
</g>
</svg>
