<?xml version="1.0" encoding="utf-8"?>
<!-- Generator: Adobe Illustrator 22.1.0, SVG Export Plug-In . SVG Version: 6.00 Build 0)  -->
<svg version="1.1" id="Layer_1" xmlns="http://www.w3.org/2000/svg" xmlns:xlink="http://www.w3.org/1999/xlink" x="0px" y="0px"
	 viewBox="0 0 54.8 67" style="enable-background:new 0 0 54.8 67;" xml:space="preserve">
<style type="text/css">
	.st0{fill:none;stroke-width:2;stroke-linecap:round;stroke-linejoin:round;stroke-miterlimit:10;}
	.st1{fill:none;stroke-width:3;stroke-linecap:round;stroke-linejoin:round;stroke-miterlimit:10;}
</style>
<g>
	<path class="st0" d="M22.9,25.6c0.4,2.8,2.6,2.9,2.6,2.9v30h1.9h1.9v-30c0,0,2.3-0.1,2.6-2.9H22.9z"/>
	<path class="st0" d="M29.4,58.6h-3.9c-0.5,0-1,0.4-1,1v1.7h5.8v-1.7C30.3,59,29.9,58.6,29.4,58.6z"/>
	<path class="st1" d="M30.3,61.3h-2.9h-2.9c0,0-9.2,2.4-12.1,4.2h15h15C39.5,63.7,30.3,61.3,30.3,61.3z"/>
	<path class="st1" d="M27.4,1.5H1.5c0,13.1,6.4,24.1,25.9,24.1s25.9-11,25.9-24.1H27.4z"/>
	<path class="st0" d="M27.4,1.5H1.5c0,3.8,0.5,7.4,1.7,10.6c0.3,0.4,3.6,4.3,8.3,6.4c4.9,2.3,11.1,3.4,15.9,3.4s11-1.1,15.9-3.4
		c4.6-2.1,7.9-6.1,8.3-6.4c1.2-3.2,1.7-6.8,1.7-10.6H27.4z"/>
</g>
</svg>
