<?xml version="1.0" encoding="utf-8"?>
<!-- Generator: Adobe Illustrator 22.1.0, SVG Export Plug-In . SVG Version: 6.00 Build 0)  -->
<svg version="1.1" id="Layer_1" xmlns="http://www.w3.org/2000/svg" xmlns:xlink="http://www.w3.org/1999/xlink" x="0px" y="0px"
	 viewBox="0 0 68.5 90.2" style="enable-background:new 0 0 68.5 90.2;" xml:space="preserve">
<style type="text/css">
	.st0{fill:none;stroke-width:3;stroke-linecap:round;stroke-linejoin:round;stroke-miterlimit:10;}
	.st1{fill:none;stroke-width:2;stroke-linecap:round;stroke-linejoin:round;stroke-miterlimit:10;}
</style>
<g>
	<path class="st0" d="M67,1.5H34.3H1.5C0.8,15.1,11.3,17.1,17,18.4c3.7,1.4-1.4,16.9,12.7,26.2h4.5h4.5c14.1-9.3,9.1-24.8,12.7-26.2
		C57.3,17.1,67.7,15.1,67,1.5z"/>
	<polygon class="st0" points="38.8,44.6 29.7,44.6 31.8,48.9 36.8,48.9 	"/>
	<rect x="31.8" y="48.9" class="st0" width="5" height="31.6"/>
	<path class="st0" d="M38.3,81.4l-1.5-0.9h-2.5h-2.5l-1.5,0.9c-0.3,0.2-0.5,0.5-0.5,0.9v1.6h4.5h4.5v-1.6
		C38.8,81.9,38.6,81.5,38.3,81.4z"/>
	<polygon class="st0" points="38.8,83.9 34.3,83.9 29.7,83.9 14.2,88.7 34.3,88.7 54.3,88.7 	"/>
	<path class="st1" d="M34.3,15.3c0,0-23.8,0.1-29-2.2c3.4,3.4,8.4,4.4,11.8,5.2c0.3,0.1,0.6,0.4,0.8,0.7l0,0c5.6,0,4.6,22,16.4,22
		c11.8,0,10.8-22,16.4-22c0.2-0.3,0.5-0.6,0.8-0.7c3.4-0.8,8.4-1.8,11.8-5.2C58.1,15.5,34.3,15.3,34.3,15.3z"/>
</g>
</svg>
