<?xml version="1.0" encoding="utf-8"?>
<!-- Generator: Adobe Illustrator 22.1.0, SVG Export Plug-In . SVG Version: 6.00 Build 0)  -->
<svg version="1.1" id="Layer_1" xmlns="http://www.w3.org/2000/svg" xmlns:xlink="http://www.w3.org/1999/xlink" x="0px" y="0px"
	 viewBox="0 0 58.3 84.4" style="enable-background:new 0 0 58.3 84.4;" xml:space="preserve">
<style type="text/css">
	.st0{fill:none;stroke-width:3;stroke-linecap:round;stroke-linejoin:round;stroke-miterlimit:10;}
	.st1{fill:none;stroke-width:2;stroke-linecap:round;stroke-linejoin:round;stroke-miterlimit:10;}
</style>
<g>
	<path class="st0" d="M56.8,1.5c0,0-22.1,32.7-22.1,34.3c0,2.5-3.2,2.5-3.2,2.5L31.4,75h-2.2h-0.1h-2.2l-0.1-36.7
		c0,0-3.2-0.1-3.2-2.5c0-1.6-22.1-34.3-22.1-34.3H56.8z"/>
	<polygon class="st0" points="34.1,77.8 24.1,77.8 26.9,75 31.4,75 	"/>
	<path class="st0" d="M34.2,77.8h-5h-5c0,0-10.5,3.7-13.4,5.1h18.4h18.4C44.7,81.5,34.2,77.8,34.2,77.8z"/>
	<path class="st1" d="M1.5,1.5c0,0,10.5,15.4,17,25.6c0,0,4.2,5.3,6.2,6.2c2,0.8,6.8,0.8,8.8,0c2-0.8,6.2-6.2,6.2-6.2
		c6.5-10.2,17-25.6,17-25.6H1.5z"/>
</g>
</svg>
