<?xml version="1.0" encoding="utf-8"?>
<!-- Generator: Adobe Illustrator 22.1.0, SVG Export Plug-In . SVG Version: 6.00 Build 0)  -->
<svg version="1.1" id="Layer_1" xmlns="http://www.w3.org/2000/svg" xmlns:xlink="http://www.w3.org/1999/xlink" x="0px" y="0px"
	 viewBox="0 0 83.8 67" style="enable-background:new 0 0 83.8 67;" xml:space="preserve">
<style type="text/css">
	.st0{fill:none;stroke-width:3;stroke-linecap:round;stroke-linejoin:round;stroke-miterlimit:10;}
</style>
<g>
	<path class="st0" d="M29.3,62.2c-6,0-23.9-1.1-23.9-1.1v1.1c0,1.8,1.4,3.2,3.2,3.2h20.7h20.7c1.8,0,3.2-1.4,3.2-3.2v-1.1
		C53.2,61.1,35.2,62.2,29.3,62.2z"/>
	<path class="st0" d="M57,9.6c0,0,10.6-1.6,14.1,0s10.6,5.7,11,11.5c0.5,5.7,0.3,25.8-1.6,28.3c-2.5,3.2-6.2,5.5-8,6.2
		c-1.8,0.7-16.8,0-16.8,0s-3.9-2.5-2.5-8.7c1.5-4.4,3.7-4.8,3.5-2.8c-0.1,2,4.3,5.5,8.4,5.5c4.1,0,7.6-0.5,9.2-4.2
		s2.5-18.4,1.1-23.2s-6.7-6.7-10.1-6.2c-3.4,0.5-8.4,6.2-10.7,4.1C52.5,18.1,49.8,11.7,57,9.6z"/>
	<path class="st0" d="M55.6,55.6c0,0-3.9-2.5-2.5-8.7c1.5-4.4,3.7-4.8,3.5-2.8c0,0,0,0,0,0l0,0c0.4-7.4,0.4-16.1,0.2-23.7
		c-0.9,0.3-1.7,0.3-2.3-0.2c-2.2-2-4.8-8.3,2-10.5l0-0.1c-0.2-4.9-0.3-8.1-0.3-8.1H29.3H2.1c0,0-2.8,58.7,3.2,59.6
		c6,0.9,23.9,1.1,23.9,1.1s17.9-0.2,23.9-1.1C54.3,60.9,55,58.9,55.6,55.6L55.6,55.6C55.6,55.6,55.6,55.6,55.6,55.6z"/>
	<path class="st0" d="M1.6,38.7c0.5,8.1,1.5,14.6,3.7,15.5c3.3,1.3,18.8,3.9,23.9,3.9c5.1,0,21.4-1.4,23.9-3.9
		c0.2-0.2,0.3-0.6,0.5-1.1l2.1,2.5c1.3,0.1,15,0.7,16.7,0c1.8-0.7,5.5-3,8-6.2c1.9-2.5,2.1-22.5,1.6-28.3c-0.5-5.7-7.6-9.9-11-11.5
		C67.6,8,57,9.6,57,9.6c-0.1,0-0.2,0.1-0.3,0.1l0,0l0-0.1c-0.2-4.9-0.3-8.1-0.3-8.1H29.3H2.1C2.1,1.5,1.2,21.8,1.6,38.7z"/>
</g>
</svg>
