<?xml version="1.0" encoding="utf-8"?>
<!-- Generator: Adobe Illustrator 22.1.0, SVG Export Plug-In . SVG Version: 6.00 Build 0)  -->
<svg version="1.1" id="Layer_1" xmlns="http://www.w3.org/2000/svg" xmlns:xlink="http://www.w3.org/1999/xlink" x="0px" y="0px"
	 viewBox="0 0 44.6 55.3" style="enable-background:new 0 0 44.6 55.3;" xml:space="preserve">
<style type="text/css">
	.st0{fill:none;stroke-width:3;stroke-linecap:round;stroke-linejoin:round;stroke-miterlimit:10;}
	.st1{fill:none;stroke-width:2;stroke-linecap:round;stroke-linejoin:round;stroke-miterlimit:10;}
</style>
<g>
	<polygon class="st0" points="41.9,46.6 2.7,46.6 1.5,1.5 43.1,1.5 	"/>
	<path class="st0" d="M41.4,46.6H3.2c-0.3,0-0.5,0.2-0.5,0.5v6.1c0,0.3,0.2,0.5,0.5,0.5h38.1c0.3,0,0.5-0.2,0.5-0.5v-6.1
		C41.9,46.9,41.7,46.6,41.4,46.6z"/>
	<path class="st1" d="M1.5,1.5L2,21.2l0,0C2.7,24.3,3.6,43,4.9,43.8s17.4,0.6,17.4,0.6s16.1,0.2,17.4-0.6s2.1-19.5,2.8-22.6l0,0
		l0.5-19.7H1.5z"/>
</g>
</svg>
