<?xml version="1.0" encoding="utf-8"?>
<!-- Generator: Adobe Illustrator 22.1.0, SVG Export Plug-In . SVG Version: 6.00 Build 0)  -->
<svg version="1.1" id="Layer_1" xmlns="http://www.w3.org/2000/svg" xmlns:xlink="http://www.w3.org/1999/xlink" x="0px" y="0px"
	 viewBox="0 0 56.6 148.1" style="enable-background:new 0 0 56.6 148.1;" xml:space="preserve">
<style type="text/css">
	.st0{fill:none;stroke-width:3;stroke-linecap:round;stroke-linejoin:round;stroke-miterlimit:10;}
	.st1{fill:none;stroke-width:2;stroke-linecap:round;stroke-linejoin:round;stroke-miterlimit:10;}
</style>
<g>
	<path class="st0" d="M54,1.5H28.3H2.6C-2.9,45.3,14,81.5,14,104.2c-0.7,16.8-4.2,27.4-4.2,27.4h18.5h18.5c0,0-3.5-10.5-4.2-27.4
		C42.6,81.5,59.4,45.3,54,1.5z"/>
	<path class="st0" d="M49.5,139l-2.7-7.4H28.3H9.8L7,139c-1.3,3.7,1.4,7.6,5.3,7.6h15.9h15.9C48.1,146.6,50.9,142.7,49.5,139z"/>
	<path class="st1" d="M42.6,104.2C42.6,81.5,59.4,45.3,54,1.5H28.3H2.6C-2.9,45.3,14,81.5,14,104.2c-0.3,6.3-0.9,11.6-1.6,15.9l0,0
		c-1.9,9,15.9,8.2,15.9,8.2s17.8,0.8,15.9-8.2l0,0C43.5,115.9,42.9,110.5,42.6,104.2z"/>
</g>
</svg>
