<?xml version="1.0" encoding="utf-8"?>
<!-- Generator: Adobe Illustrator 22.1.0, SVG Export Plug-In . SVG Version: 6.00 Build 0)  -->
<svg version="1.1" id="Layer_1" xmlns="http://www.w3.org/2000/svg" xmlns:xlink="http://www.w3.org/1999/xlink" x="0px" y="0px"
	 viewBox="0 0 62.1 152.8" style="enable-background:new 0 0 62.1 152.8;" xml:space="preserve">
<style type="text/css">
	.st0{fill:none;stroke-width:3;stroke-linecap:round;stroke-linejoin:round;stroke-miterlimit:10;}
	.st1{fill:none;stroke-width:2;stroke-linecap:round;stroke-linejoin:round;stroke-miterlimit:10;}
</style>
<g>
	<g>
		<path class="st0" d="M46.5,109.6C59.4,95.9,65.1,34.7,56.3,1.5H31H5.8c-8.9,33.2-3.1,94.4,9.7,108.1c0,0,6.1,7.7,6.6,11.5H31h8.9
			C40.5,117.3,46.5,109.6,46.5,109.6z"/>
	</g>
	<polygon class="st0" points="31,121.2 22.2,121.2 22.2,138 31,138 39.9,138 39.9,121.2 	"/>
	<path class="st0" d="M39.9,138H31h-8.9c0,0-5,3-4.1,8.3h13h13C44.9,140.9,39.9,138,39.9,138z"/>
	<polygon class="st0" points="44,146.3 31,146.3 18,146.3 3.8,151.3 31,151.3 58.2,151.3 	"/>
	<path class="st1" d="M31,1.5H5.8C-2,30.8,1.5,81.7,11.2,102.8c0,0,1.4,2.4,6.7,5.8c5.7,3.7,13.1,3.7,13.1,3.7s7.4,0,13.1-3.7
		c5.3-3.4,6.7-5.8,6.7-5.8l0,0c9.7-21.1,13.3-72,5.5-101.3H31z"/>
</g>
</svg>
