<?xml version="1.0" encoding="utf-8"?>
<!-- Generator: Adobe Illustrator 22.1.0, SVG Export Plug-In . SVG Version: 6.00 Build 0)  -->
<svg version="1.1" id="Layer_1" xmlns="http://www.w3.org/2000/svg" xmlns:xlink="http://www.w3.org/1999/xlink" x="0px" y="0px"
	 viewBox="0 0 69.9 117" style="enable-background:new 0 0 69.9 117;" xml:space="preserve">
<style type="text/css">
	.st0{fill:none;stroke-width:3;stroke-linecap:round;stroke-linejoin:round;stroke-miterlimit:10;}
	.st1{fill:none;stroke-width:2;stroke-linecap:round;stroke-linejoin:round;stroke-miterlimit:10;}
</style>
<g>
	<path class="st0" d="M66.7,21.3c0-3.6,0-19.8,0-19.8H34.9H3.2c0,0,0,16.2,0,19.8s-2,7.6-1.7,10.3s3,7.9,3.3,10.3
		c0.3,2.3,5,64.4,6.3,68.1h23.8h23.8c1.3-3.7,6-65.8,6.3-68.1c0.3-2.3,3-7.6,3.3-10.3S66.7,25,66.7,21.3z"/>
	<rect x="11.1" y="110" class="st0" width="47.6" height="5.5"/>
	<path class="st1" d="M68.3,31.6c0.3-2.6-1.7-6.6-1.7-10.3c0-3.6,0-19.8,0-19.8H34.9H3.2c0,0,0,16.2,0,19.8c0,3.6-2,7.6-1.7,10.3
		s3,7.9,3.3,10.3c0,0.3,0.2,1.6,0.3,3.7l0,0c0,0,7.1,56.3,9.3,58.7c2.2,2.4,20.5,2,20.5,2s18.3,0.4,20.5-2
		c2.2-2.4,9.3-58.7,9.3-58.7h0c0.2-2.1,0.3-3.4,0.3-3.7C65.4,39.5,68,34.2,68.3,31.6z"/>
</g>
</svg>
