<?xml version="1.0" encoding="utf-8"?>
<!-- Generator: Adobe Illustrator 22.1.0, SVG Export Plug-In . SVG Version: 6.00 Build 0)  -->
<svg version="1.1" id="Layer_1" xmlns="http://www.w3.org/2000/svg" xmlns:xlink="http://www.w3.org/1999/xlink" x="0px" y="0px"
	 viewBox="0 0 147.4 174.7" style="enable-background:new 0 0 147.4 174.7;" xml:space="preserve">
<style type="text/css">
	.st0{fill:none;stroke-width:3;stroke-linecap:round;stroke-linejoin:round;stroke-miterlimit:10;}
	.st1{fill:none;stroke-width:2;stroke-linecap:round;stroke-linejoin:round;stroke-miterlimit:10;}
</style>
<g>
	<path class="st0" d="M116,49.5c-0.8,0.1-1.7,0.1-2.8,0.1c-8.3,0.1-2.4-17.4-0.7-18.2c2.1-1,4,3.9,4.7,4.3c3,1.7,11.2-2,15.8,0.7
		c4.6,2.7,9.3,7,10.3,14.9s3.3,62.6,2.3,66.9c-1,4.3-5.6,9.6-10.6,10.9c-5,1.3-25,7.5-30.9,12.3s-5.2-7.3-5.5-10.3s1.1-7.9,3.2-9.9
		c3.6-3.5,5.7,2.9,8,3.6s21.9-7,24.2-9.6s1.5-59.4,0-63.3c-0.6-1.7-3.3-5.6-8.6-4.3C121.1,48.7,119.4,49.3,116,49.5"/>
	<path class="st0" d="M98.6,131.1c-0.3-3,1.1-7.9,3.2-9.9c1.9-1.9,3.4-0.9,4.7,0.5c2.7-22,6.4-50.8,9.4-72.2v0
		c-0.8,0.1-1.7,0.1-2.8,0.1c-8.3,0.1-2.4-17.4-0.7-18.2c2.1-1,4,3.9,4.7,4.3c0.2,0.1,0.5,0.2,0.7,0.3c0.8-5.4,1.6-9.7,2.2-12.6
		c0.4-1.9-1-3.6-2.9-3.6c-10.6-0.1-39.8-0.6-49.8-1.9C55.2,16.1,42.2,3.2,31.6,1.9C21,0.6,1.5,2.6,1.5,7.9c0,4,7.6-0.7,10.9,6
		c2.7,5.4,14.9,131.5,15.2,140.5v16.4c0,1.4,1.1,2.5,2.5,2.5h69.6c1.4,0,2.5-1.1,2.5-2.5l0.3-16.4c0,0,0.6-4.9,1.6-12.9l0,0
		C98.2,146.2,98.9,134.1,98.6,131.1z"/>
	<path class="st1" d="M16.4,15.1c3,4.6,15.6,137.5,18.2,140.5c2.7,3,21.5,5,29.8,5.3c8.3-0.3,29.2-2.3,31.8-5.3
		c0.6-0.6,1.6-6.9,3-16.4c-0.5-2.1-0.5-4.8-0.6-6.7c0-0.3,0-0.6,0-0.8c0,0,0,0,0,0c0-0.3,0-0.5-0.1-0.7c-0.3-3,1.1-7.9,3.2-9.9l0,0
		c3-22.2,6.6-50.7,9.7-71.9l0,0c-3.8-1.4-2.9-8.4-1.4-13.2c0,0,0,0,0,0c0.1-0.2,0.1-0.4,0.2-0.6c0,0,0-0.1,0-0.1
		c0.1-0.2,0.1-0.3,0.2-0.5c0-0.1,0-0.1,0.1-0.2c0.1-0.1,0.1-0.3,0.2-0.4c0-0.1,0.1-0.2,0.1-0.2c0-0.1,0.1-0.2,0.1-0.3
		c0-0.1,0.1-0.2,0.1-0.2c0-0.1,0.1-0.2,0.1-0.3c0-0.1,0.1-0.2,0.1-0.2c0-0.1,0.1-0.2,0.1-0.2c0-0.1,0.1-0.2,0.1-0.2
		c0-0.1,0.1-0.1,0.1-0.2c0-0.1,0.1-0.1,0.1-0.2c0-0.1,0.1-0.1,0.1-0.2c0-0.1,0.1-0.1,0.1-0.2c0,0,0.1-0.1,0.1-0.1
		c0-0.1,0.1-0.1,0.1-0.1c0,0,0,0,0.1-0.1c0.1-0.1,0.1-0.1,0.2-0.1c0.1-0.1,0.3-0.1,0.4-0.1c0,0,0.1,0,0.1,0c0.1,0,0.2,0,0.3,0
		c0,0,0.1,0,0.1,0c0.1,0,0.2,0.1,0.3,0.1c0,0,0.1,0,0.1,0c0.1,0.1,0.3,0.2,0.4,0.3l0,0c1.2-7,2.2-11.5,2.9-12
		c-10.6-0.1-39.8-0.6-49.8-1.9C55.2,16.1,42.2,3.2,31.6,1.9C21,0.6,1.5,2.6,1.5,7.9c0,4,7.6-0.7,10.9,6
		C12.4,13.8,15.5,13.8,16.4,15.1z"/>
</g>
</svg>
