<?xml version="1.0" encoding="utf-8"?>
<!-- Generator: Adobe Illustrator 22.1.0, SVG Export Plug-In . SVG Version: 6.00 Build 0)  -->
<svg version="1.1" id="Layer_1" xmlns="http://www.w3.org/2000/svg" xmlns:xlink="http://www.w3.org/1999/xlink" x="0px" y="0px"
	 viewBox="0 0 51.6 101.8" style="enable-background:new 0 0 51.6 101.8;" xml:space="preserve">
<style type="text/css">
	.st0{fill:none;stroke-width:3;stroke-linecap:round;stroke-linejoin:round;stroke-miterlimit:10;}
	.st1{fill:none;stroke-width:2;stroke-linecap:round;stroke-linejoin:round;stroke-miterlimit:10;}
</style>
<g>
	<path class="st0" d="M30.1,94h-4.4h-4.4c0,0-14,3.7-18.4,6.4h22.9h22.9C44.2,97.7,30.1,94,30.1,94z"/>
	<path class="st0" d="M42.6,13.8c0-2.2,1.7-7.3,2.7-10.2c0.4-1-0.4-2.1-1.5-2.1h-18h-18c-1.1,0-1.9,1.1-1.5,2.1
		c1,2.9,2.7,8,2.7,10.2c0,3.1-7.4,21.4-7.4,30.9c0,9.2,11.9,17,17.3,22.2c0.3,0.3,0.7,0.4,1.1,0.4h5.9h5.9c0.4,0,0.8-0.2,1.1-0.4
		c5.4-5.2,17.3-13,17.3-22.2C50.1,35.2,42.6,16.9,42.6,13.8z"/>
	<path class="st1" d="M42.6,13.8c0-2.2,1.7-7.3,2.7-10.2c0.4-1-0.4-2.1-1.5-2.1h-18h-18c-1.1,0-1.9,1.1-1.5,2.1
		c1,2.9,2.7,8,2.7,10.2c0,3.1-7.4,21.4-7.4,30.9c0,3.3,1.6,6.5,3.9,9.4l0,0l0,0c0.1,0.1,0.2,0.3,0.3,0.4c1.2,1.4,6.1,5.6,20.1,5.6
		s18.9-4.2,20.1-5.6c0.1-0.1,0.2-0.3,0.3-0.4l0,0l0,0c2.3-2.9,3.9-6.1,3.9-9.4C50.1,35.2,42.6,16.9,42.6,13.8z"/>
	<polygon class="st0" points="29,70.9 22.4,70.9 19.7,67.3 31.9,67.3 	"/>
	<polygon class="st0" points="29,89.8 22.4,89.8 19.7,93.4 31.9,93.4 	"/>
	<rect x="22.4" y="70.9" class="st0" width="6.7" height="18.9"/>
</g>
</svg>
