<?xml version="1.0" encoding="utf-8"?>
<!-- Generator: Adobe Illustrator 22.1.0, SVG Export Plug-In . SVG Version: 6.00 Build 0)  -->
<svg version="1.1" id="Layer_1" xmlns="http://www.w3.org/2000/svg" xmlns:xlink="http://www.w3.org/1999/xlink" x="0px" y="0px"
	 viewBox="0 0 56.2 61.1" style="enable-background:new 0 0 56.2 61.1;" xml:space="preserve">
<style type="text/css">
	.st0{fill:none;stroke-width:3;stroke-linecap:round;stroke-linejoin:round;stroke-miterlimit:10;}
	.st1{fill:none;stroke-width:2;stroke-linecap:round;stroke-linejoin:round;stroke-miterlimit:10;}
	.st2{fill:none;stroke-width:2;stroke-linecap:square;stroke-linejoin:round;stroke-miterlimit:10;}
</style>
<g>
	<path class="st0" d="M28.1,1.5h26.6l-2.2,28.2c-0.1,1.3-1.3,1.9-1.3,1.9l-4.6,28.1H28.1H9.6L5,31.5c0,0-1.2-0.5-1.3-1.9L1.5,1.5
		H28.1z"/>
	<path class="st1" d="M52.5,29.7l2.2-28.2H28.1H1.5l2.2,28.2C3.9,31,5,31.5,5,31.5l0.2,1l0,0c3,5,5,14.2,5.5,16.2s3,3.3,17.4,4.1
		c14.4-0.8,17-2.2,17.4-4.1S48,37.5,51,32.5l0,0l0.2-1C51.2,31.5,52.4,31,52.5,29.7z"/>
	<path class="st2" d="M35.4,31.1c-4,0-7.3,1.6-7.3,3.5v17.1l0.4,1c5.4-0.3,9.1-0.7,11.7-1.2l0,0l2.4-17
		C42.6,32.7,39.4,31.1,35.4,31.1z"/>
	<path class="st1" d="M45.5,48.7C46,46.8,48,37.5,51,32.5l0,0l0.1-0.7L51,31.1c-0.4,0-0.7,0-1.1,0c-4,0-7.3,1.6-7.3,3.5l-2.4,17l0,0
		C44.2,50.8,45.2,49.8,45.5,48.7z"/>
	<path class="st2" d="M20.9,31.1c4,0,7.3,1.6,7.3,3.5v17.1l-0.4,1c-5.4-0.3-9.1-0.7-11.7-1.2l0,0l-2.4-17
		C13.6,32.7,16.8,31.1,20.9,31.1z"/>
	<path class="st1" d="M10.7,48.7c-0.4-1.9-2.5-11.2-5.5-16.2l0,0l-0.1-0.7l0.2-0.6c0.4,0,0.7,0,1.1,0c4,0,7.3,1.6,7.3,3.5l2.4,17
		l0,0C12,50.8,11,49.8,10.7,48.7z"/>
</g>
</svg>
