<?xml version="1.0" encoding="utf-8"?>
<!-- Generator: Adobe Illustrator 22.1.0, SVG Export Plug-In . SVG Version: 6.00 Build 0)  -->
<svg version="1.1" id="Layer_1" xmlns="http://www.w3.org/2000/svg" xmlns:xlink="http://www.w3.org/1999/xlink" x="0px" y="0px"
	 viewBox="0 0 58.3 78.6" style="enable-background:new 0 0 58.3 78.6;" xml:space="preserve">
<style type="text/css">
	.st0{fill:none;stroke-width:3;stroke-linecap:square;stroke-linejoin:round;stroke-miterlimit:10;}
	.st1{fill:none;stroke-width:3;stroke-linecap:round;stroke-linejoin:round;stroke-miterlimit:10;}
	.st2{fill:none;stroke-width:2;stroke-linecap:square;stroke-linejoin:round;stroke-miterlimit:10;}
</style>
<g>
	<g>
		<path class="st0" d="M44.3,47.6H14c-2.4,0-4.5-1.9-4.9-4.4L1.5,2.6C1.4,2,1.9,1.5,2.5,1.5h53.4c0.6,0,1,0.5,0.9,1.1l-7.6,40.5
			C48.8,45.7,46.7,47.6,44.3,47.6z"/>
		<path class="st0" d="M29.2,47.6H14c0,0,6.1,4.4,6.9,7.1h8.3h8.3c0.8-2.7,6.9-7.1,6.9-7.1H29.2z"/>
		<path class="st0" d="M29.2,72H14c0,0,6.1-4.4,6.9-7.1h8.3h8.3c0.8,2.7,6.9,7.1,6.9,7.1H29.2z"/>
		<ellipse class="st0" cx="29.2" cy="59.8" rx="11.2" ry="7.5"/>
		<path class="st1" d="M44.4,72H29.2H14c0,0-6.4,1.5-9.4,5.1h24.6h24.6C50.7,73.5,44.4,72,44.4,72z"/>
	</g>
	<g>
		<path class="st0" d="M44.3,47.6H14c-2.4,0-4.5-1.9-4.9-4.4L1.5,2.6C1.4,2,1.9,1.5,2.5,1.5h53.4c0.6,0,1,0.5,0.9,1.1l-7.6,40.5
			C48.8,45.7,46.7,47.6,44.3,47.6z"/>
		<path class="st0" d="M29.2,47.6H14c0,0,6.1,4.4,6.9,7.1h8.3h8.3c0.8-2.7,6.9-7.1,6.9-7.1H29.2z"/>
		<path class="st0" d="M29.2,72H14c0,0,6.1-4.4,6.9-7.1h8.3h8.3c0.8,2.7,6.9,7.1,6.9,7.1H29.2z"/>
		<ellipse class="st0" cx="29.2" cy="59.8" rx="11.2" ry="7.5"/>
		<path class="st1" d="M44.4,72H29.2H14c0,0-6.4,1.5-9.4,5.1h24.6h24.6C50.7,73.5,44.4,72,44.4,72z"/>
	</g>
	<path class="st2" d="M55.9,1.5H2.5c-0.6,0-1,0.5-0.9,1.1l4.9,25.9c0,0,2.4,9.8,4.9,12.3c2.5,2.5,17.9,2.2,17.9,2.2
		s15.4,0.3,17.9-2.2c2.5-2.5,4.9-12.3,4.9-12.3l0,0l4.9-25.9C56.9,2,56.5,1.5,55.9,1.5z"/>
</g>
</svg>
