<?xml version="1.0" encoding="utf-8"?>
<!-- Generator: Adobe Illustrator 22.1.0, SVG Export Plug-In . SVG Version: 6.00 Build 0)  -->
<svg version="1.1" id="Layer_1" xmlns="http://www.w3.org/2000/svg" xmlns:xlink="http://www.w3.org/1999/xlink" x="0px" y="0px"
	 viewBox="0 0 51.5 55.3" style="enable-background:new 0 0 51.5 55.3;" xml:space="preserve">
<style type="text/css">
	.st0{fill:none;stroke-width:3;stroke-linecap:round;stroke-linejoin:round;stroke-miterlimit:10;}
	.st1{fill:none;stroke-width:2;stroke-linecap:round;stroke-linejoin:round;stroke-miterlimit:10;}
	.st2{fill:none;stroke-width:2;stroke-linecap:square;stroke-linejoin:round;stroke-miterlimit:10;}
</style>
<g>
	<g>
		<polygon class="st0" points="47.9,21.9 43.5,53.8 8,53.8 3.6,21.9 1.5,1.5 50,1.5 		"/>
	</g>
	<path class="st1" d="M50,1.5H1.5l2.1,20.4l0.1,0.9c0,0,0.1,0,0.1,0c2.9,4.5,4.8,19.2,5.3,21c0.4,1.7,2.9,3,16.7,3.7
		c13.8-0.7,16.3-2,16.7-3.7c0.4-1.7,2.4-16.5,5.3-21l0.1-0.1l0.1-0.9L50,1.5z"/>
	<g>
		<path class="st2" d="M32.7,22.8c-3.8,0-7,1.4-7,3.2v20.6l0.8,0.9c5.4-0.3,8.9-0.7,11.3-1.2l0.1-0.6L39.7,26
			C39.7,24.2,36.6,22.8,32.7,22.8z"/>
		<path class="st1" d="M39.7,26l-1.8,20.4c3.4-0.7,4.3-1.5,4.6-2.5c0.4-1.7,2.4-16.5,5.3-21c-0.3,0-0.7,0-1.1,0
			C42.8,22.8,39.7,24.2,39.7,26z"/>
		<path class="st1" d="M11.8,26l1.8,20.4c-3.4-0.7-4.3-1.5-4.6-2.5c-0.4-1.7-2.4-16.5-5.3-21c0.3,0,0.7,0,1.1,0
			C8.7,22.8,11.8,24.2,11.8,26z"/>
		<path class="st2" d="M18.8,22.8c3.8,0,7,1.4,7,3.2v20.6l-0.8,0.9c-5.4-0.3-8.9-0.7-11.3-1.2l-0.1-0.6L11.8,26
			C11.8,24.2,14.9,22.8,18.8,22.8z"/>
	</g>
</g>
</svg>
