<?xml version="1.0" encoding="utf-8"?>
<!-- Generator: Adobe Illustrator 22.1.0, SVG Export Plug-In . SVG Version: 6.00 Build 0)  -->
<svg version="1.1" id="Layer_1" xmlns="http://www.w3.org/2000/svg" xmlns:xlink="http://www.w3.org/1999/xlink" x="0px" y="0px"
	 viewBox="0 0 60.8 84.4" style="enable-background:new 0 0 60.8 84.4;" xml:space="preserve">
<style type="text/css">
	.st0{fill:none;stroke-width:3;stroke-linecap:round;stroke-linejoin:round;stroke-miterlimit:10;}
	.st1{fill:none;stroke-width:2;stroke-linecap:round;stroke-linejoin:round;stroke-miterlimit:10;}
</style>
<g>
	<path class="st0" d="M56.8,1.5H30.4H4c0,0-3.1,14.8-2.3,22.6S6.6,41.2,19,47.4c3.1,1.6,4.8,2.9,4.8,2.9h6.6H37c0,0,1.7-1.3,4.8-2.9
		c12.4-6.2,16.6-15.6,17.4-23.3C60,16.3,56.8,1.5,56.8,1.5z"/>
	<rect x="23.8" y="50.2" class="st0" width="13.2" height="4"/>
	<rect x="24.4" y="62.7" class="st0" width="11.9" height="7"/>
	<path class="st0" d="M25.4,62.7c-1.9-1.2-3.1-3-3.1-5.1c0-1.3,0.5-2.5,1.3-3.5L37.1,54c0.9,1,1.4,2.3,1.4,3.6
		c0,2.1-1.2,3.9-3.1,5.1L25.4,62.7z"/>
	<path class="st0" d="M36.4,69.7h-6h-6c0,0-11.8,1.9-14.3,9.6h20.2h20.2C48.2,71.6,36.4,69.7,36.4,69.7z"/>
	<rect x="10.2" y="79.3" class="st0" width="40.4" height="3.6"/>
	<path class="st1" d="M59.2,24.1c0.8-7.8-2.3-22.6-2.3-22.6H30.4H4c0,0-3.1,14.8-2.3,22.6C2.3,31.2,5.9,39.6,16,45.7
		c3.3,1.6,14.4,1.6,14.4,1.6s11,0.1,14.4-1.6C54.9,39.6,58.5,31.2,59.2,24.1z"/>
</g>
</svg>
