<?xml version="1.0" encoding="utf-8"?>
<!-- Generator: Adobe Illustrator 22.1.0, SVG Export Plug-In . SVG Version: 6.00 Build 0)  -->
<svg version="1.1" id="Layer_1" xmlns="http://www.w3.org/2000/svg" xmlns:xlink="http://www.w3.org/1999/xlink" x="0px" y="0px"
	 viewBox="0 0 93.8 117.5" style="enable-background:new 0 0 93.8 117.5;" xml:space="preserve">
<style type="text/css">
	.st0{fill:none;stroke-width:3;stroke-linecap:round;stroke-linejoin:round;stroke-miterlimit:10;}
	.st1{fill:none;stroke-width:2;stroke-linecap:round;stroke-linejoin:round;stroke-miterlimit:10;}
</style>
<g>
	<path class="st0" d="M32,107.7H1.5v5.7c0,1.4,1.1,2.5,2.5,2.5H32h28.1c1.4,0,2.5-1.1,2.5-2.5v-5.7H32z"/>
	<path class="st0" d="M60.4,13.8h19.3c5.7,0,9.7,5.7,11,9.2c2.8,8.1,1.7,60.7-1.1,65.9c-4.4,7.8-12,7.5-14.1,7.8
		c-2.2,0.2-15.2-0.1-15.2-0.1c-3.9-2.4-2.2-11.4,0.2-11.4c2.4,0,8,0,10.3,0c2.3,0,7.8-0.1,9.8-6.8c1-3.4,1.7-39.2,0.7-45.7
		c-0.4-2.8,0-9-5.7-9.9H60.4C58.8,21.6,56.9,17.3,60.4,13.8z"/>
	<path class="st0" d="M60.1,96.5c-3.9-2.4-2.2-11.4,0.2-11.4c0.6,0,1.3,0,2.2,0V22.7h-2.2c-1.5-1.1-3.5-5.5,0-9h2.2V1.5H32H1.5
		v106.2H32h30.5V96.5C61.1,96.5,60.1,96.5,60.1,96.5z"/>
	<g>
		<path class="st0" d="M6.4,64.3c0.6-0.1,1.2-0.1,1.8-0.1c4.4,0,7.9,2.3,7.9,5.1v30.3"/>
		<path class="st0" d="M32,101.1V69.3c0-2.8-3.6-5.1-7.9-5.1c-4.4,0-7.9,2.3-7.9,5.1l0,30.3"/>
	</g>
	<g>
		<path class="st0" d="M57.6,64.3c-0.6-0.1-1.2-0.1-1.8-0.1c-4.4,0-7.9,2.3-7.9,5.1v30.3"/>
		<path class="st0" d="M32,101.1V69.3c0-2.8,3.6-5.1,7.9-5.1c4.4,0,7.9,2.3,7.9,5.1l0,30.3"/>
	</g>
	<path class="st1" d="M60.4,22.7L60.4,22.7c-1.6-1.1-3.5-5.5,0-9h0.1c0.1-7.3,0.1-12.3,0.1-12.3H3.5c0,0,0,62.6,3.1,66.3
		C9.6,71.5,7.8,96,9.7,98c4,4.1,22.3,4.1,22.3,4.1s18.3,0,22.3-4.1c2-2,0.1-26.5,3.2-30.2C59.4,65.5,60.1,41.3,60.4,22.7L60.4,22.7z
		"/>
</g>
</svg>
