<?xml version="1.0" encoding="utf-8"?>
<!-- Generator: Adobe Illustrator 22.1.0, SVG Export Plug-In . SVG Version: 6.00 Build 0)  -->
<svg version="1.1" id="Layer_1" xmlns="http://www.w3.org/2000/svg" xmlns:xlink="http://www.w3.org/1999/xlink" x="0px" y="0px"
	 viewBox="0 0 35.4 72.8" style="enable-background:new 0 0 35.4 72.8;" xml:space="preserve">
<style type="text/css">
	.st0{fill:none;stroke-width:3;stroke-linecap:round;stroke-linejoin:round;stroke-miterlimit:10;}
	.st1{fill:none;stroke-width:2;stroke-linecap:round;stroke-linejoin:round;stroke-miterlimit:10;}
</style>
<g>
	<path class="st0" d="M25,66.8h-7.3h-7.3c0,0-5.8,2.6-8.9,4.5h16.2h16.2C30.8,69.4,25,66.8,25,66.8z"/>
	<path class="st0" d="M21.6,42.1C25,32.1,32.3,34,32.2,1.5H17.7H3.1c0,32.5,7.3,30.6,10.7,40.6c3.9,13.8,0.1,22.8-3.4,24.7h7.3H25
		C21.5,64.9,17.7,55.8,21.6,42.1z"/>
	<path class="st0" d="M23.8,37.5H11.6l0,0c0.8,1.3,1.6,2.7,2.2,4.6h7.8C22.2,40.2,23,38.8,23.8,37.5L23.8,37.5z"/>
	<path class="st1" d="M17.7,1.5H3.1c0,6.5,0.3,11.6,0.8,15.7c1.9,9.4,4.6,15.6,13.8,15.6c9.2,0,11.9-6.2,13.8-15.6
		C32,13.1,32.2,8,32.2,1.5H17.7z"/>
	<path class="st0" d="M21.6,62.4L21.6,62.4l-7.8,0l0,0c-0.9,2.2-2.2,3.7-3.4,4.3h7.3H25C23.8,66.1,22.5,64.6,21.6,62.4z"/>
</g>
</svg>
