<?xml version="1.0" encoding="utf-8"?>
<!-- Generator: Adobe Illustrator 22.1.0, SVG Export Plug-In . SVG Version: 6.00 Build 0)  -->
<svg version="1.1" id="Layer_1" xmlns="http://www.w3.org/2000/svg" xmlns:xlink="http://www.w3.org/1999/xlink" x="0px" y="0px"
	 viewBox="0 0 25.3 52.4" style="enable-background:new 0 0 25.3 52.4;" xml:space="preserve">
<style type="text/css">
	.st0{fill:none;stroke-width:3;stroke-linecap:round;stroke-linejoin:round;stroke-miterlimit:10;}
	.st1{fill:none;stroke-width:2;stroke-linecap:round;stroke-linejoin:round;stroke-miterlimit:10;}
</style>
<g>
	<path class="st0" d="M19.7,40c0-6.8,4-38.5,4-38.5H12.2H1.5c0,0,4,31.7,4,38.5c0,3.4-0.6,6.1-1.2,8c-0.5,1.4,0.6,2.9,2.1,2.9h6.3
		h6.3c1.5,0,2.5-1.5,2.1-2.9C20.3,46.2,19.7,43.5,19.7,40z"/>
	<path class="st1" d="M1.5,1.5c0,0,4.9,22.4,5.3,24.7c0.4,2.3,3.5,5.3,5.8,5.3s5.3-3,5.8-5.3c0.4-2.3,5.3-24.7,5.3-24.7H12.2H1.5z"
		/>
</g>
</svg>
