<?xml version="1.0" encoding="utf-8"?>
<!-- Generator: Adobe Illustrator 22.1.0, SVG Export Plug-In . SVG Version: 6.00 Build 0)  -->
<svg version="1.1" id="Layer_1" xmlns="http://www.w3.org/2000/svg" xmlns:xlink="http://www.w3.org/1999/xlink" x="0px" y="0px"
	 viewBox="0 0 29.3 48.7" style="enable-background:new 0 0 29.3 48.7;" xml:space="preserve">
<style type="text/css">
	.st0{fill:none;stroke-width:3;stroke-linecap:round;stroke-linejoin:round;stroke-miterlimit:10;}
	.st1{fill:none;stroke-width:2;stroke-linecap:round;stroke-linejoin:round;stroke-miterlimit:10;}
</style>
<g>
	<path class="st0" d="M14.6,1.5H2.8c-1,0-1.6,1-1.2,1.8c0.8,2,1,4.3,1,5.9c0,1.9,1.4,30.2,1.7,36.6c0,0.7,0.6,1.3,1.4,1.3h9h9
		c0.7,0,1.3-0.6,1.4-1.3c0.3-6.4,1.7-34.7,1.7-36.6c0-1.6,0.2-4,1-5.9c0.3-0.9-0.3-1.8-1.2-1.8H14.6z"/>
	<path class="st1" d="M26.7,9.3c0-1.6,0.2-4,1-5.9c0.3-0.9-0.3-1.8-1.2-1.8H14.6H2.8c-1,0-1.6,1-1.2,1.8c0.8,2,1,4.3,1,5.9
		c0,0.7,0.2,5.4,0.5,11.2C3.8,25,4.7,33.3,6.1,35c1.3,1.7,6.1,3.8,8.6,3.8c2.5,0,7.2-2,8.6-3.8c1.3-1.7,2.2-10,3-14.5
		C26.5,14.7,26.7,10,26.7,9.3z"/>
</g>
</svg>
