<?xml version="1.0" encoding="utf-8"?>
<!-- Generator: Adobe Illustrator 22.1.0, SVG Export Plug-In . SVG Version: 6.00 Build 0)  -->
<svg version="1.1" id="Layer_1" xmlns="http://www.w3.org/2000/svg" xmlns:xlink="http://www.w3.org/1999/xlink" x="0px" y="0px"
	 viewBox="0 0 29.8 41" style="enable-background:new 0 0 29.8 41;" xml:space="preserve">
<style type="text/css">
	.st0{fill:none;stroke-width:3;stroke-linecap:round;stroke-linejoin:round;stroke-miterlimit:10;}
	.st1{fill:none;stroke-width:2;stroke-linecap:round;stroke-linejoin:round;stroke-miterlimit:10;}
</style>
<g>
	<path class="st0" d="M14.9,1.5l-13.4,0c1.8,31.4,1.8,31.4,2.2,36.9c0,0.6,0.5,1,1.1,1l10,0l0,0l10,0c0.6,0,1.1-0.5,1.1-1
		c0.4-5.4,0.4-5.4,2.4-36.9L14.9,1.5z"/>
	<g>
		<path class="st1" d="M6.9,32.3c0-1,0.9-1.7,2-1.7s2,0.8,2,1.7l0,7.2h-4L6.9,32.3z"/>
		<path class="st1" d="M22.7,32.3c0-1-0.9-1.7-2-1.7s-2,0.8-2,1.7l0,7.2h4L22.7,32.3z"/>
		<path class="st1" d="M4.9,30.5c-0.7,0-1.4,0.4-1.7,0.9c0,0.7,0.1,1.3,0.1,1.9l0.4,5.1c0,0.6,0.5,1,1.1,1l2,0l0-7.2
			C6.9,31.3,6,30.5,4.9,30.5z"/>
		<path class="st1" d="M14.8,39.5l0-7.2c0-1,0.9-1.7,2-1.7s2,0.8,2,1.7l0,7.2L14.8,39.5z"/>
		<path class="st1" d="M14.8,39.5l0-7.2c0-1-0.9-1.7-2-1.7s-2,0.8-2,1.7l0,7.2L14.8,39.5z"/>
		<path class="st1" d="M25.9,38.4c0.2-2.6,0.3-2.9,0.6-7c-0.3-0.5-1-0.9-1.7-0.9c-1.1,0-2,0.8-2,1.7l0,7.2l0,0l2,0
			C25.4,39.5,25.8,39,25.9,38.4z"/>
	</g>
	<path class="st1" d="M28.3,1.6l-13.4,0l-13.4,0C1.7,4.9,1.9,8,2,10.7c1.3,10.8,4.6,17.2,12.8,17.2c8.2,0,11.5-6.4,12.9-17.1
		C27.9,8.1,28.1,5,28.3,1.6z"/>
</g>
</svg>
