<?xml version="1.0" encoding="utf-8"?>
<!-- Generator: Adobe Illustrator 22.1.0, SVG Export Plug-In . SVG Version: 6.00 Build 0)  -->
<svg version="1.1" id="Layer_1" xmlns="http://www.w3.org/2000/svg" xmlns:xlink="http://www.w3.org/1999/xlink" x="0px" y="0px"
	 viewBox="0 0 34 38.5" style="enable-background:new 0 0 34 38.5;" xml:space="preserve">
<style type="text/css">
	.st0{fill:none;stroke-width:3;stroke-linecap:round;stroke-linejoin:round;stroke-miterlimit:10;}
	.st1{fill:none;stroke-width:2;stroke-linecap:round;stroke-linejoin:round;stroke-miterlimit:10;}
</style>
<g>
	<path class="st0" d="M17,1.5l-15.5,0c0,0,3.5,26.6,4.8,34.2c0.1,0.7,0.7,1.2,1.4,1.2l9.1,0l9.1,0c0.7,0,1.3-0.5,1.5-1.2
		c1.3-7.6,5-34.2,5-34.2L17,1.5z"/>
	<path class="st1" d="M16.9,29.9c-4.2,0-10.4-1.7-13-10.7c0.9,6.6,1.9,13.3,2.4,16.5c0.1,0.7,0.7,1.2,1.4,1.2l9.1,0l9.1,0
		c0.7,0,1.3-0.5,1.5-1.2C28,32.5,29,25.9,30,19.3C27.4,28.2,21.1,29.9,16.9,29.9z"/>
</g>
</svg>
