<?xml version="1.0" encoding="utf-8"?>
<!-- Generator: Adobe Illustrator 22.1.0, SVG Export Plug-In . SVG Version: 6.00 Build 0)  -->
<svg version="1.1" id="Layer_1" xmlns="http://www.w3.org/2000/svg" xmlns:xlink="http://www.w3.org/1999/xlink" x="0px" y="0px"
	 viewBox="0 0 57.9 112.7" style="enable-background:new 0 0 57.9 112.7;" xml:space="preserve">
<style type="text/css">
	.st0{fill:none;stroke-width:3;stroke-linecap:round;stroke-linejoin:round;stroke-miterlimit:10;}
	.st1{fill:none;stroke-width:2;stroke-linecap:round;stroke-linejoin:round;stroke-miterlimit:10;}
</style>
<g>
	<path class="st0" d="M56.4,1.5H28.9H1.5c0,43.8,13.2,66.8,13.2,74.1c0,7.6-4.1,18.6-4.4,23.3h18.6h18.6c-0.3-4.7-4.4-15.8-4.4-23.3
		C43.1,68.3,56.4,45.3,56.4,1.5z"/>
	<path class="st0" d="M49.4,106.5c-0.8-4.2-1.9-7.6-1.9-7.6H28.9H10.3c0,0-1.1,3.4-1.9,7.6c-0.5,2.4,1.4,4.7,3.9,4.7h16.6h16.6
		C48,111.2,49.9,109,49.4,106.5z"/>
	<path class="st1" d="M1.5,1.5c4.1,48.7,11.9,57.6,16.4,74.7c0.7,2.8-4.1,15.4-3.8,19.2c0,0,10.1,1.3,14.8,1.3s14.8-1.3,14.8-1.3
		C44,91.6,39.2,79,40,76.2c4.5-17.2,12.3-26,16.4-74.7H1.5z"/>
</g>
</svg>
