<?xml version="1.0" encoding="utf-8"?>
<!-- Generator: Adobe Illustrator 22.1.0, SVG Export Plug-In . SVG Version: 6.00 Build 0)  -->
<svg version="1.1" id="Layer_1" xmlns="http://www.w3.org/2000/svg" xmlns:xlink="http://www.w3.org/1999/xlink" x="0px" y="0px"
	 viewBox="0 0 78.4 125.1" style="enable-background:new 0 0 78.4 125.1;" xml:space="preserve">
<style type="text/css">
	.st0{fill:none;stroke-width:3;stroke-linejoin:round;stroke-miterlimit:10;}
	.st1{fill:none;stroke-width:3;stroke-linecap:round;stroke-linejoin:round;stroke-miterlimit:10;}
	.st2{fill:none;stroke-width:2;stroke-linejoin:round;stroke-miterlimit:10;}
</style>
<g>
	<path class="st0" d="M39.2,54.7c-3.4,0-6.7,0-10.1,0c3.1,2.9,4.8,5.8,6.7,8.7c1.2,0,2.3,0,3.5,0c1.2,0,2.3,0,3.5,0
		c1.9-2.9,3.5-5.8,6.7-8.7C45.9,54.7,42.6,54.7,39.2,54.7z"/>
	<path class="st0" d="M39.2,117.4c-1.9,0-3.8,0-5.7,0c0.9-1.4,1.6-2.9,2.2-4.3c1.2,0,2.3,0,3.5,0c1.2,0,2.3,0,3.5,0
		c0.7,1.4,1.4,2.9,2.2,4.3C43,117.4,41.1,117.4,39.2,117.4z"/>
	<path class="st1" d="M68.2,1.5h-29h-29c0,0-12.4,17.8-7.5,31.1c5.8,15.7,19.3,20,26.4,22.1h10.1h10.1c7.1-2.1,20.6-6.4,26.4-22.1
		C80.6,19.3,68.2,1.5,68.2,1.5z"/>
	<path class="st0" d="M42.6,113.1c-2.2,0-4.5,0-6.7,0c1.3-16.5,1.3-33.1,0-49.7c2.2,0,4.5,0,6.7,0C41.3,79.9,41.3,96.5,42.6,113.1z"
		/>
	<path class="st2" d="M75.7,32.6c4.9-13.2-7.5-31.1-7.5-31.1h-29h-29c0,0-12.4,17.8-7.5,31.1c2.4,6.4,6,10.9,10,14.1
		c0,0,6,3.9,26.5,3.9c20.6,0,26.5-3.9,26.5-3.9l0,0C69.7,43.5,73.3,39,75.7,32.6z"/>
	<path class="st1" d="M44.9,117.4h-5.7h-5.7c0,0-16.7,4-21.1,6.2h26.8H66C61.6,121.5,44.9,117.4,44.9,117.4z"/>
</g>
</svg>
