<?xml version="1.0" encoding="utf-8"?>
<!-- Generator: Adobe Illustrator 22.1.0, SVG Export Plug-In . SVG Version: 6.00 Build 0)  -->
<svg version="1.1" id="Layer_1" xmlns="http://www.w3.org/2000/svg" xmlns:xlink="http://www.w3.org/1999/xlink" x="0px" y="0px"
	 viewBox="0 0 62.8 107.7" style="enable-background:new 0 0 62.8 107.7;" xml:space="preserve">
<style type="text/css">
	.st0{fill:none;stroke-width:3;stroke-linecap:round;stroke-linejoin:round;stroke-miterlimit:10;}
	.st1{fill:none;stroke-width:3;stroke-linejoin:round;stroke-miterlimit:10;}
	.st2{fill:none;stroke-width:2;stroke-linejoin:round;stroke-miterlimit:10;}
</style>
<g>
	<path class="st0" d="M43.3,99.4H31.4H19.5c0,0-8.5,4.8-12.3,6.7h24.2h24.2C51.8,104.3,43.3,99.4,43.3,99.4z"/>
	<path class="st1" d="M57.5,1.5H31.4H5.4c-8.8,20.9-2.6,46.7,18.3,57.2h7.7h7.7C60,48.2,66.2,22.4,57.5,1.5z"/>
	<path class="st1" d="M31.4,58.7c-2.6,0-5.2,0-7.7,0c1.3,2.5,2,5.1,2.5,7.6c1.7,0,3.5,0,5.2,0c1.7,0,3.5,0,5.2,0
		c0.5-2.5,1.2-5.1,2.5-7.6C36.6,58.7,34,58.7,31.4,58.7z"/>
	<path class="st1" d="M31.4,99.4c-4,0-7.9,0-11.9,0c2.6-2.1,4.6-4.3,6.7-6.4c1.7,0,3.5,0,5.2,0c1.7,0,3.5,0,5.2,0
		c2.1,2.1,4.1,4.3,6.7,6.4C39.3,99.4,35.4,99.4,31.4,99.4z"/>
	<ellipse class="st1" cx="31.4" cy="79.7" rx="6.4" ry="23"/>
	<path class="st2" d="M57.5,1.5H31.4H5.4C-0.2,14.7,0.3,30,6.7,42.1c0.4,0.6,7.1,9.5,24.7,9.5c17.6,0,24.3-8.9,24.7-9.5
		C62.6,30,63,14.7,57.5,1.5z"/>
</g>
</svg>
