<?xml version="1.0" encoding="utf-8"?>
<!-- Generator: Adobe Illustrator 22.1.0, SVG Export Plug-In . SVG Version: 6.00 Build 0)  -->
<svg version="1.1" id="Layer_1" xmlns="http://www.w3.org/2000/svg" xmlns:xlink="http://www.w3.org/1999/xlink" x="0px" y="0px"
	 viewBox="0 0 50.5 119.3" style="enable-background:new 0 0 50.5 119.3;" xml:space="preserve">
<style type="text/css">
	.st0{fill:none;stroke-width:3;stroke-linejoin:round;stroke-miterlimit:10;}
	.st1{fill:none;stroke-width:3;stroke-linecap:round;stroke-linejoin:round;stroke-miterlimit:10;}
	.st2{fill:none;stroke-width:2;stroke-linecap:round;stroke-linejoin:round;stroke-miterlimit:10;}
</style>
<g>
	<path class="st0" d="M25.2,62.5c-3.3,0-4.6,0-6.9,0c2.1,2.8,3.6,5.4,3.6,8.4c1.1,0,2.2,0,3.3,0c1.1,0,2.2,0,3.3,0
		c-0.1-3,1.4-5.6,3.6-8.4C29.8,62.5,28.5,62.5,25.2,62.5z"/>
	<path class="st0" d="M28.5,107.3c-2.2,0-4.3,0-6.5,0c1.3-16,1.3-20.5,0-36.5c2.2,0,4.3,0,6.5,0C27.2,86.8,27.2,91.4,28.5,107.3z"/>
	<path class="st0" d="M48.9,25.2c-0.5-8.7-4.6-23.7-4.6-23.7H25.2H6.1c0,0-4.1,15-4.6,23.7C1.1,33.9,3.8,50,18.3,62.5h6.9h6.9
		C46.6,50,49.4,33.9,48.9,25.2z"/>
	<path class="st0" d="M33.7,112.4c-5.7,0-11.3,0-17,0c2.3-2.1,3.7-2.9,5.3-5c2.2,0,4.3,0,6.5,0C30.1,109.4,31.5,110.3,33.7,112.4z"
		/>
	<path class="st1" d="M33.5,112.4h-8.4h-8.4c0,0-9.6,3.5-13.2,5.4h21.6h21.6C43.2,115.9,33.5,112.4,33.5,112.4z"/>
	<path class="st2" d="M48.9,25.2c-0.5-8.7-4.6-23.7-4.6-23.7H25.2H6.1c0,0-4.1,15-4.6,23.7c-0.3,6,0.9,15.4,6.3,24.7
		c0,0,4.5,5.7,17.4,5.7c12.9,0,17.4-5.6,17.4-5.7C48.1,40.6,49.2,31.2,48.9,25.2z"/>
</g>
</svg>
