<?xml version="1.0" standalone="no"?>
<!DOCTYPE svg PUBLIC "-//W3C//DTD SVG 20010904//EN"
 "http://www.w3.org/TR/2001/REC-SVG-20010904/DTD/svg10.dtd">
<svg version="1.0" xmlns="http://www.w3.org/2000/svg"
 width="744.000000pt" height="744.000000pt" viewBox="0 0 744.000000 744.000000"
 preserveAspectRatio="xMidYMid meet">
<metadata>
Created by potrace 1.11, written by Peter Selinger 2001-2013
</metadata>
<g transform="translate(0.000000,744.000000) scale(0.100000,-0.100000)"
fill="#000000" stroke="none">
<path d="M6529 6547 c-86 -42 -176 -85 -369 -175 -129 -61 -243 -114 -335
-157 -176 -82 -311 -145 -555 -257 -36 -16 -99 -46 -140 -65 -104 -48 -176
-82 -235 -109 -27 -12 -85 -39 -127 -58 -42 -20 -79 -36 -81 -36 -3 0 -50 -21
-104 -46 -54 -25 -111 -52 -128 -59 -16 -7 -70 -32 -120 -55 -49 -22 -90 -40
-90 -39 0 1 -35 -15 -78 -35 -43 -20 -80 -36 -82 -36 -2 0 -32 -13 -67 -29
-35 -16 -90 -40 -123 -54 -33 -14 -89 -39 -125 -55 -57 -25 -93 -41 -110 -47
-3 -1 -21 -9 -40 -17 -19 -9 -78 -35 -130 -58 -52 -23 -115 -51 -140 -62 -80
-35 -103 -45 -215 -93 -60 -26 -132 -57 -160 -70 -27 -12 -111 -48 -185 -80
-74 -32 -160 -69 -190 -82 -30 -13 -71 -31 -90 -40 -19 -8 -53 -23 -75 -33
-22 -9 -58 -25 -80 -34 -22 -10 -49 -21 -60 -26 -27 -12 -421 -185 -620 -272
-88 -39 -180 -80 -205 -91 -25 -11 -47 -21 -50 -21 -3 -1 -25 -11 -50 -23 -25
-11 -76 -35 -115 -53 -234 -106 -270 -123 -275 -127 -2 -2 1 -13 8 -23 14 -24
15 -30 3 -30 -5 0 -42 -15 -83 -33 -40 -18 -93 -42 -118 -52 -66 -28 -120 -63
-127 -83 -12 -36 -66 -178 -86 -226 -68 -163 -273 -530 -316 -566 -3 -3 -28
-32 -56 -65 -27 -33 -62 -72 -77 -87 -16 -15 -28 -29 -28 -31 0 -3 -20 -25
-44 -51 -25 -25 -48 -56 -51 -67 -23 -73 425 -564 780 -854 26 -22 60 -50 73
-63 14 -12 28 -22 31 -22 3 0 17 -10 31 -23 29 -27 278 -207 286 -207 3 0 20
-11 37 -24 85 -64 356 -219 532 -305 299 -145 500 -222 795 -304 114 -32 143
-39 205 -51 11 -2 55 -11 98 -20 67 -14 171 -16 790 -15 l712 0 130 29 c72 16
157 35 190 44 144 37 204 54 212 59 5 3 20 8 34 11 22 4 182 58 219 73 8 3 17
7 20 8 11 2 177 67 205 79 17 8 64 28 105 46 41 18 113 51 160 73 47 22 87 41
90 42 6 1 61 30 109 58 20 11 56 31 81 45 104 59 315 197 364 239 12 10 37 29
56 43 19 14 42 32 51 40 9 8 38 33 64 55 105 88 275 263 350 359 17 21 35 44
40 50 94 104 287 436 354 611 18 44 36 89 40 100 9 19 17 44 19 55 1 3 11 32
22 65 11 33 30 96 41 140 11 44 22 87 26 95 3 8 7 24 8 35 2 21 11 71 22 120
3 17 8 44 9 60 5 43 14 106 19 135 25 137 25 640 0 824 -2 17 -6 54 -9 81 -3
28 -8 61 -10 75 -3 14 -9 57 -15 95 -6 39 -13 81 -16 95 -3 14 -8 39 -10 55
-6 33 -9 48 -18 85 -4 14 -9 36 -11 50 -3 14 -12 50 -20 82 -8 31 -17 67 -20
80 -3 12 -12 47 -21 75 -8 29 -16 55 -15 58 0 3 -6 21 -14 40 -9 20 -15 38
-16 40 0 3 0 6 -1 8 0 1 -2 9 -4 17 -1 8 -23 72 -49 141 -36 100 -44 132 -37
155 23 83 -9 326 -54 415 -8 15 -15 33 -15 38 0 18 -97 176 -146 237 -56 71
-190 204 -205 204 -6 0 -20 -5 -31 -11 -18 -10 -25 -8 -39 10 -9 11 -19 21
-21 20 -1 0 -42 -19 -89 -42z"/>
</g>
</svg>
